<svg xmlns="http://www.w3.org/2000/svg" version="1.1" xmlns:xlink="http://www.w3.org/1999/xlink" xmlns:svgjs="http://svgjs.dev/svgjs" viewBox="0 0 8.557679033146854 8.744764184394713"><g transform="matrix(1,0,0,1,0.7208845605187393,7.047527573094724)"><rect width="8.744764184394713" height="8.744764184394713" x="-0.814427136142668" y="-7.047527573094723" fill="#ffffff"></rect><g><path d=" M 0.08201806640625 0.008426513671874969 L 0.448852294921875 0.008426513671874969 L 0.448852294921875 0.12302709960937497 L 0.22751586914062502 0.12302709960937497 L 0.22751586914062502 0.41009033203125 L 0.40110205078125005 0.41009033203125 L 0.40110205078125005 0.52469091796875 L 0.22751586914062502 0.52469091796875 L 0.22751586914062502 0.967925537109375 L 0.08201806640625 0.967925537109375 L 0.08201806640625 0.008426513671874969 M 0.7583862304687501 0.97635205078125 Q 0.735353759765625 0.97635205078125 0.708388916015625 0.9727005615234375 Q 0.6814240722656251 0.969049072265625 0.6550209960937501 0.957251953125 Q 0.6286179199218751 0.945454833984375 0.6041810302734376 0.9238267822265626 Q 0.579744140625 0.90219873046875 0.5609249267578126 0.866807373046875 Q 0.542105712890625 0.831416015625 0.530870361328125 0.7794525146484375 Q 0.519635009765625 0.727489013671875 0.519635009765625 0.655582763671875 L 0.519635009765625 0.31571337890624995 Q 0.519635009765625 0.2432453613281249 0.5311512451171876 0.19184362792968745 Q 0.54266748046875 0.14044189453125 0.561767578125 0.1053314208984375 Q 0.5808676757812501 0.070220947265625 0.6053045654296876 0.04943554687499996 Q 0.6297414550781251 0.028650146484374917 0.6564254150390626 0.017695678710937468 Q 0.6831093750000001 0.0067412109374999085 0.7095124511718751 0.0033706054687498987 Q 0.7359155273437501 0 0.7583862304687501 0 Q 0.7797333984375001 0 0.8058555908203126 0.0030897216796874627 Q 0.8319777832031251 0.006179443359374925 0.8580999755859375 0.016572143554687502 Q 0.8842221679687501 0.026964843749999967 0.90893994140625 0.04746936035156246 Q 0.9336577148437502 0.06797387695312496 0.9527578125 0.10308435058593746 Q 0.9718579101562501 0.13819482421874996 0.9833741455078125 0.1901583251953125 Q 0.9948903808593751 0.24212182617187494 0.9948903808593751 0.31571337890624995 L 0.9948903808593751 0.655582763671875 Q 0.9948903808593751 0.72692724609375 0.9830932617187501 0.7783289794921875 Q 0.9712961425781251 0.829730712890625 0.9521960449218752 0.8654029541015625 Q 0.9330959472656251 0.9010751953125 0.9080972900390626 0.9227032470703125 Q 0.8830986328125001 0.944331298828125 0.8569764404296876 0.9564093017578125 Q 0.830854248046875 0.9684873046875 0.8050129394531251 0.972419677734375 Q 0.779171630859375 0.97635205078125 0.7583862304687501 0.97635205078125 M 0.7583862304687501 0.866807373046875 Q 0.7797333984375001 0.866807373046875 0.7957437744140625 0.85950439453125 Q 0.8117541503906252 0.852201416015625 0.8221468505859375 0.834224853515625 Q 0.8325395507812501 0.816248291015625 0.8378763427734376 0.7867554931640625 Q 0.8432131347656251 0.7572626953125 0.8432131347656251 0.7123212890624999 L 0.8432131347656251 0.27582788085937493 Q 0.8432131347656251 0.22976293945312498 0.8378763427734376 0.1988657226562499 Q 0.8325395507812501 0.16796850585937495 0.8221468505859375 0.1491492919921874 Q 0.8117541503906252 0.13033007812499997 0.7957437744140625 0.12246533203124998 Q 0.7797333984375001 0.1146005859375 0.7583862304687501 0.1146005859375 Q 0.7364772949218751 0.1146005859375 0.7201860351562501 0.12246533203124998 Q 0.7038947753906251 0.13033007812499997 0.69322119140625 0.1491492919921874 Q 0.682547607421875 0.16796850585937495 0.6772108154296875 0.1988657226562499 Q 0.6718740234375 0.22976293945312498 0.6718740234375 0.27582788085937493 L 0.6718740234375 0.7123212890624999 Q 0.6718740234375 0.7572626953125 0.6772108154296875 0.7867554931640625 Q 0.682547607421875 0.816248291015625 0.69322119140625 0.834224853515625 Q 0.7038947753906251 0.852201416015625 0.7201860351562501 0.85950439453125 Q 0.7364772949218751 0.866807373046875 0.7583862304687501 0.866807373046875 M 1.1325234375000002 0.008426513671874969 L 1.2903801269531252 0.008426513671874969 Q 1.3173449707031253 0.008426513671874969 1.3496466064453128 0.010673583984374901 Q 1.3819482421875002 0.012920654296874945 1.4142498779296877 0.02162805175781246 Q 1.4465515136718752 0.030335449218749977 1.4766060791015627 0.0477502441406249 Q 1.5066606445312503 0.06516503906249993 1.5299739990234378 0.0955004882812499 Q 1.5532873535156253 0.1258359375 1.5673315429687502 0.1716199951171875 Q 1.5813757324218751 0.2174040527343749 1.5813757324218751 0.28256909179687495 L 1.5813757324218751 0.30672509765625 Q 1.5813757324218751 0.41626977539062493 1.5499167480468752 0.48508630371093747 Q 1.5184577636718752 0.55390283203125 1.4572250976562502 0.58423828125 L 1.6111494140625002 0.967925537109375 L 1.4572250976562502 0.967925537109375 L 1.3297038574218751 0.6089560546874999 L 1.27521240234375 0.6089560546874999 L 1.27521240234375 0.967925537109375 L 1.1325234375000002 0.967925537109375 L 1.1325234375000002 0.008426513671874969 M 1.2971213378906252 0.503905517578125 Q 1.3353215332031252 0.503905517578125 1.3617246093750002 0.49547900390625 Q 1.3881276855468752 0.48705249023437497 1.4044189453125002 0.4671097412109375 Q 1.4207102050781253 0.4471669921875 1.4280131835937502 0.41430358886718743 Q 1.4353161621093753 0.381440185546875 1.4353161621093753 0.333128173828125 L 1.4353161621093753 0.25728955078124993 Q 1.4353161621093753 0.22021289062499994 1.4285749511718753 0.19324804687499997 Q 1.4218337402343753 0.166283203125 1.4058233642578126 0.14886840820312497 Q 1.3898129882812502 0.13145361328124994 1.3634099121093752 0.12302709960937497 Q 1.3370068359375002 0.1146005859375 1.2971213378906252 0.1146005859375 L 1.27521240234375 0.1146005859375 L 1.27521240234375 0.503905517578125 L 1.2971213378906252 0.503905517578125 M 1.9279863281250003 0.97635205078125 Q 1.9055156250000003 0.97635205078125 1.8793934326171877 0.9727005615234375 Q 1.8532712402343754 0.969049072265625 1.8271490478515628 0.957251953125 Q 1.8010268554687503 0.945454833984375 1.777151733398438 0.9238267822265626 Q 1.7532766113281253 0.90219873046875 1.7350191650390627 0.866807373046875 Q 1.7167617187500004 0.831416015625 1.7058072509765627 0.7794525146484375 Q 1.6948527832031253 0.727489013671875 1.6948527832031253 0.655582763671875 L 1.6948527832031253 0.31571337890624995 Q 1.6948527832031253 0.2432453613281249 1.7060881347656254 0.19184362792968745 Q 1.7173234863281253 0.14044189453125 1.7358618164062503 0.1053314208984375 Q 1.7544001464843753 0.070220947265625 1.7785561523437503 0.04943554687499996 Q 1.8027121582031254 0.028650146484374917 1.8285534667968752 0.017695678710937468 Q 1.8543947753906254 0.0067412109374999085 1.8799552001953128 0.0033706054687498987 Q 1.9055156250000003 0 1.9274245605468754 0 Q 1.9847248535156252 0 2.023205932617188 0.016010375976562408 Q 2.0616870117187505 0.032020751953124926 2.085000366210938 0.059828247070312424 Q 2.1083137207031255 0.08763574218749992 2.118144653320313 0.12471240234374992 Q 2.1279755859375005 0.1617890624999999 2.1279755859375005 0.20335986328125 Q 2.1279755859375005 0.23425708007812496 2.124885864257813 0.2603792724609375 Q 2.121796142578125 0.28650146484374994 2.11561669921875 0.31796044921875 L 1.9976455078125004 0.31796044921875 L 1.9976455078125004 0.2690866699218749 Q 1.9976455078125004 0.18987744140624996 1.9802307128906254 0.15055371093749992 Q 1.9628159179687503 0.11122998046874999 1.9291098632812502 0.11122998046874999 Q 1.9088862304687502 0.11122998046874999 1.8937185058593753 0.11909472656249998 Q 1.8785507812500004 0.12695947265624996 1.8684389648437503 0.1457786865234375 Q 1.8583271484375004 0.16459790039062494 1.8529903564453127 0.1954951171875 Q 1.8476535644531253 0.22639233398437497 1.8476535644531253 0.2724572753906249 L 1.8476535644531253 0.710635986328125 Q 1.8476535644531253 0.7555773925781251 1.8518668212890628 0.78535107421875 Q 1.8560800781250002 0.815124755859375 1.8656301269531252 0.833101318359375 Q 1.8751801757812503 0.851077880859375 1.8906287841796878 0.8586617431640625 Q 1.9060773925781254 0.86624560546875 1.9279863281250003 0.86624560546875 Q 1.9420305175781252 0.86624560546875 1.9549511718750003 0.8597852783203125 Q 1.9678718261718753 0.853324951171875 1.9777027587890628 0.8395616455078125 Q 1.9875336914062502 0.8257983398437501 1.9934322509765627 0.8047320556640625 Q 1.9993308105468752 0.783665771484375 1.9993308105468752 0.755015625 L 1.9993308105468752 0.661200439453125 L 2.1324697265625003 0.661200439453125 L 2.1324697265625003 0.749959716796875 Q 2.1324697265625003 0.865683837890625 2.0796635742187504 0.920737060546875 Q 2.0268574218750004 0.975790283203125 1.9279863281250003 0.97635205078125 M 2.2470703125000004 0.008426513671874969 L 2.6026691894531253 0.008426513671874969 L 2.6026691894531253 0.12302709960937497 L 2.3925681152343756 0.12302709960937497 L 2.3925681152343756 0.41009033203125 L 2.5549189453125005 0.41009033203125 L 2.5549189453125005 0.52469091796875 L 2.3925681152343756 0.52469091796875 L 2.3925681152343756 0.853324951171875 L 2.6082868652343754 0.853324951171875 L 2.6082868652343754 0.967925537109375 L 2.2470703125000004 0.967925537109375 L 2.2470703125000004 0.008426513671874969 M 2.9593916015625004 0.008426513671874969 L 3.1105070800781256 0.008426513671874969 Q 3.1447749023437503 0.008426513671874969 3.181570678710938 0.010392700195312465 Q 3.2183664550781255 0.012358886718749962 3.253476928710938 0.02247070312499999 Q 3.2885874023437505 0.03258251953124991 3.319765502929688 0.0536488037109375 Q 3.3509436035156255 0.07471508789062498 3.3745378417968754 0.1126343994140625 Q 3.3981320800781254 0.15055371093749992 3.411895385742188 0.2081348876953124 Q 3.4256586914062503 0.265716064453125 3.4256586914062503 0.34885766601562496 L 3.4256586914062503 0.6274943847656249 Q 3.4256586914062503 0.710635986328125 3.411895385742188 0.768498046875 Q 3.3981320800781254 0.8263601074218749 3.3745378417968754 0.86399853515625 Q 3.3509436035156255 0.901636962890625 3.319765502929688 0.9227032470703125 Q 3.2885874023437505 0.94376953125 3.253476928710938 0.95388134765625 Q 3.2183664550781255 0.9639931640625 3.181570678710938 0.9659593505859375 Q 3.1447749023437503 0.967925537109375 3.1105070800781256 0.967925537109375 L 2.9593916015625004 0.967925537109375 L 2.9593916015625004 0.008426513671874969 M 3.1419660644531255 0.86624560546875 Q 3.1812897949218755 0.86624560546875 3.206850219726563 0.8561337890625 Q 3.2324106445312504 0.84602197265625 3.247297485351563 0.8204615478515624 Q 3.2621843261718753 0.794901123046875 3.2678020019531253 0.7508023681640625 Q 3.2734196777343754 0.70670361328125 3.2734196777343754 0.63929150390625 L 3.2734196777343754 0.34155468749999995 Q 3.2734196777343754 0.274142578125 3.2678020019531253 0.23004382324218742 Q 3.2621843261718753 0.18594506835937497 3.247297485351563 0.1603846435546875 Q 3.2324106445312504 0.13482421874999995 3.206850219726563 0.12471240234374992 Q 3.1812897949218755 0.1146005859375 3.1419660644531255 0.1146005859375 L 3.1048894042968755 0.1146005859375 L 3.1048894042968755 0.86624560546875 L 3.1419660644531255 0.86624560546875 M 3.5520563964843754 0.008426513671874969 L 3.698677734375001 0.008426513671874969 L 3.698677734375001 0.711759521484375 Q 3.698677734375001 0.756700927734375 3.7031718750000007 0.786474609375 Q 3.7076660156250005 0.816248291015625 3.717496948242188 0.8339439697265625 Q 3.7273278808593755 0.8516396484375 3.742776489257813 0.8592235107421875 Q 3.7582250976562506 0.866807373046875 3.7795722656250006 0.866807373046875 Q 3.8009194335937506 0.866807373046875 3.816929809570313 0.8592235107421875 Q 3.8329401855468754 0.8516396484375 3.8433328857421882 0.8339439697265625 Q 3.8537255859375006 0.816248291015625 3.859062377929688 0.786474609375 Q 3.8643991699218754 0.756700927734375 3.8643991699218754 0.711759521484375 L 3.8643991699218754 0.008426513671874969 L 4.009335205078125 0.008426513671874969 L 4.009335205078125 0.67299755859375 Q 4.009335205078125 0.743218505859375 3.9980998535156256 0.7932158203124999 Q 3.9868645019531255 0.843213134765625 3.9683261718750007 0.876919189453125 Q 3.9497878417968755 0.910625244140625 3.925912719726563 0.930287109375 Q 3.9020375976562507 0.949948974609375 3.8764771728515632 0.9603416748046875 Q 3.850916748046876 0.970734375 3.8256372070312508 0.9735432128906251 Q 3.8003576660156257 0.97635205078125 3.7795722656250006 0.97635205078125 Q 3.7587868652343754 0.97635205078125 3.7337882080078133 0.9735432128906251 Q 3.7087895507812507 0.970734375 3.6835100097656257 0.9603416748046875 Q 3.6582304687500007 0.949948974609375 3.6346362304687507 0.930287109375 Q 3.6110419921875008 0.910625244140625 3.5925036621093756 0.876919189453125 Q 3.5739653320312508 0.843213134765625 3.563010864257813 0.7934967041015625 Q 3.5520563964843754 0.7437802734375 3.5520563964843754 0.67299755859375 L 3.5520563964843754 0.008426513671874969 M 4.622785400390626 0.97635205078125 Q 4.600314697265626 0.97635205078125 4.574192504882814 0.9727005615234375 Q 4.548070312500001 0.969049072265625 4.521948120117188 0.957251953125 Q 4.495825927734376 0.945454833984375 4.471950805664063 0.9238267822265626 Q 4.448075683593751 0.90219873046875 4.429818237304689 0.866807373046875 Q 4.411560791015626 0.831416015625 4.400606323242188 0.7794525146484375 Q 4.389651855468751 0.727489013671875 4.389651855468751 0.655582763671875 L 4.389651855468751 0.31571337890624995 Q 4.389651855468751 0.2432453613281249 4.400887207031251 0.19184362792968745 Q 4.412122558593751 0.14044189453125 4.430660888671876 0.1053314208984375 Q 4.449199218750001 0.070220947265625 4.473355224609376 0.04943554687499996 Q 4.497511230468751 0.028650146484374917 4.523352539062501 0.017695678710937468 Q 4.549193847656251 0.0067412109374999085 4.574754272460939 0.0033706054687498987 Q 4.600314697265626 0 4.622223632812501 0 Q 4.679523925781251 0 4.718005004882813 0.016010375976562408 Q 4.756486083984376 0.032020751953124926 4.779799438476563 0.059828247070312424 Q 4.803112792968751 0.08763574218749992 4.812943725585939 0.12471240234374992 Q 4.822774658203126 0.1617890624999999 4.822774658203126 0.20335986328125 Q 4.822774658203126 0.23425708007812496 4.819684936523439 0.2603792724609375 Q 4.816595214843751 0.28650146484374994 4.810415771484376 0.31796044921875 L 4.692444580078126 0.31796044921875 L 4.692444580078126 0.2690866699218749 Q 4.692444580078126 0.18987744140624996 4.675029785156251 0.15055371093749992 Q 4.657614990234376 0.11122998046874999 4.623908935546876 0.11122998046874999 Q 4.603685302734376 0.11122998046874999 4.588517578125001 0.11909472656249998 Q 4.573349853515626 0.12695947265624996 4.563238037109376 0.1457786865234375 Q 4.553126220703126 0.16459790039062494 4.547789428710939 0.1954951171875 Q 4.5424526367187505 0.22639233398437497 4.5424526367187505 0.2724572753906249 L 4.5424526367187505 0.710635986328125 Q 4.5424526367187505 0.7555773925781251 4.546665893554689 0.78535107421875 Q 4.550879150390626 0.815124755859375 4.560429199218751 0.833101318359375 Q 4.5699792480468755 0.851077880859375 4.585427856445313 0.8586617431640625 Q 4.600876464843751 0.86624560546875 4.622785400390626 0.86624560546875 Q 4.636829589843751 0.86624560546875 4.649750244140626 0.8597852783203125 Q 4.662670898437501 0.853324951171875 4.672501831054689 0.8395616455078125 Q 4.682332763671876 0.8257983398437501 4.688231323242189 0.8047320556640625 Q 4.694129882812501 0.783665771484375 4.694129882812501 0.755015625 L 4.694129882812501 0.661200439453125 L 4.8272687988281255 0.661200439453125 L 4.8272687988281255 0.749959716796875 Q 4.8272687988281255 0.865683837890625 4.774462646484376 0.920737060546875 Q 4.721656494140626 0.975790283203125 4.622785400390626 0.97635205078125 M 5.154217529296876 0.97635205078125 Q 5.1311850585937515 0.97635205078125 5.104220214843751 0.9727005615234375 Q 5.077255371093751 0.969049072265625 5.050852294921876 0.957251953125 Q 5.024449218750001 0.945454833984375 5.000012329101564 0.9238267822265626 Q 4.975575439453126 0.90219873046875 4.956756225585939 0.866807373046875 Q 4.937937011718751 0.831416015625 4.926701660156251 0.7794525146484375 Q 4.915466308593751 0.727489013671875 4.915466308593751 0.655582763671875 L 4.915466308593751 0.31571337890624995 Q 4.915466308593751 0.2432453613281249 4.926982543945313 0.19184362792968745 Q 4.938498779296876 0.14044189453125 4.957598876953126 0.1053314208984375 Q 4.976698974609376 0.070220947265625 5.001135864257813 0.04943554687499996 Q 5.025572753906252 0.028650146484374917 5.052256713867188 0.017695678710937468 Q 5.078940673828126 0.0067412109374999085 5.105343750000001 0.0033706054687498987 Q 5.131746826171876 0 5.154217529296876 0 Q 5.175564697265626 0 5.201686889648439 0.0030897216796874627 Q 5.227809082031251 0.006179443359374925 5.253931274414064 0.016572143554687502 Q 5.280053466796876 0.026964843749999967 5.304771240234376 0.04746936035156246 Q 5.329489013671876 0.06797387695312496 5.348589111328126 0.10308435058593746 Q 5.367689208984376 0.13819482421874996 5.3792054443359385 0.1901583251953125 Q 5.390721679687501 0.24212182617187494 5.390721679687501 0.31571337890624995 L 5.390721679687501 0.655582763671875 Q 5.390721679687501 0.72692724609375 5.378924560546876 0.7783289794921875 Q 5.367127441406251 0.829730712890625 5.348027343750001 0.8654029541015625 Q 5.328927246093751 0.9010751953125 5.303928588867189 0.9227032470703125 Q 5.278929931640626 0.944331298828125 5.252807739257814 0.9564093017578125 Q 5.226685546875001 0.9684873046875 5.200844238281251 0.972419677734375 Q 5.175002929687501 0.97635205078125 5.154217529296876 0.97635205078125 M 5.154217529296876 0.866807373046875 Q 5.175564697265626 0.866807373046875 5.191575073242189 0.85950439453125 Q 5.207585449218751 0.852201416015625 5.217978149414064 0.834224853515625 Q 5.228370849609377 0.816248291015625 5.233707641601564 0.7867554931640625 Q 5.239044433593751 0.7572626953125 5.239044433593751 0.7123212890624999 L 5.239044433593751 0.27582788085937493 Q 5.239044433593751 0.22976293945312498 5.233707641601564 0.1988657226562499 Q 5.228370849609377 0.16796850585937495 5.217978149414064 0.1491492919921874 Q 5.207585449218751 0.13033007812499997 5.191575073242189 0.12246533203124998 Q 5.175564697265626 0.1146005859375 5.154217529296876 0.1146005859375 Q 5.132308593750001 0.1146005859375 5.116017333984376 0.12246533203124998 Q 5.099726074218751 0.13033007812499997 5.089052490234376 0.1491492919921874 Q 5.078378906250001 0.16796850585937495 5.073042114257814 0.1988657226562499 Q 5.067705322265626 0.22976293945312498 5.067705322265626 0.27582788085937493 L 5.067705322265626 0.7123212890624999 Q 5.067705322265626 0.7572626953125 5.073042114257814 0.7867554931640625 Q 5.078378906250001 0.816248291015625 5.089052490234376 0.834224853515625 Q 5.099726074218751 0.852201416015625 5.116017333984376 0.85950439453125 Q 5.132308593750001 0.866807373046875 5.154217529296876 0.866807373046875 M 5.528354736328126 0.008426513671874969 L 5.883953613281251 0.008426513671874969 L 5.883953613281251 0.12302709960937497 L 5.6738525390625005 0.12302709960937497 L 5.6738525390625005 0.41009033203125 L 5.836203369140626 0.41009033203125 L 5.836203369140626 0.52469091796875 L 5.6738525390625005 0.52469091796875 L 5.6738525390625005 0.853324951171875 L 5.889571289062501 0.853324951171875 L 5.889571289062501 0.967925537109375 L 5.528354736328126 0.967925537109375 L 5.528354736328126 0.008426513671874969 M 5.991251220703126 0.008426513671874969 L 6.1378725585937515 0.008426513671874969 L 6.1378725585937515 0.711759521484375 Q 6.1378725585937515 0.756700927734375 6.142366699218751 0.786474609375 Q 6.146860839843751 0.816248291015625 6.156691772460939 0.8339439697265625 Q 6.166522705078126 0.8516396484375 6.181971313476564 0.8592235107421875 Q 6.197419921875001 0.866807373046875 6.218767089843752 0.866807373046875 Q 6.240114257812501 0.866807373046875 6.256124633789064 0.8592235107421875 Q 6.272135009765626 0.8516396484375 6.282527709960939 0.8339439697265625 Q 6.292920410156251 0.816248291015625 6.298257202148439 0.786474609375 Q 6.303593994140626 0.756700927734375 6.303593994140626 0.711759521484375 L 6.303593994140626 0.008426513671874969 L 6.448530029296876 0.008426513671874969 L 6.448530029296876 0.67299755859375 Q 6.448530029296876 0.743218505859375 6.437294677734377 0.7932158203124999 Q 6.426059326171877 0.843213134765625 6.407520996093751 0.876919189453125 Q 6.388982666015626 0.910625244140625 6.365107543945314 0.930287109375 Q 6.341232421875001 0.949948974609375 6.3156719970703135 0.9603416748046875 Q 6.2901115722656264 0.970734375 6.264832031250001 0.9735432128906251 Q 6.239552490234376 0.97635205078125 6.218767089843752 0.97635205078125 Q 6.197981689453126 0.97635205078125 6.172983032226564 0.9735432128906251 Q 6.147984375000001 0.970734375 6.122704833984376 0.9603416748046875 Q 6.097425292968751 0.949948974609375 6.073831054687501 0.930287109375 Q 6.050236816406251 0.910625244140625 6.031698486328127 0.876919189453125 Q 6.013160156250001 0.843213134765625 6.002205688476564 0.7934967041015625 Q 5.991251220703126 0.7437802734375 5.991251220703126 0.67299755859375 L 5.991251220703126 0.008426513671874969 M 6.609195556640627 0.008426513671874969 L 6.767052246093751 0.008426513671874969 Q 6.794017089843751 0.008426513671874969 6.826318725585939 0.010673583984374901 Q 6.858620361328127 0.012920654296874945 6.890921997070314 0.02162805175781246 Q 6.923223632812502 0.030335449218749977 6.953278198242189 0.0477502441406249 Q 6.983332763671877 0.06516503906249993 7.006646118164064 0.0955004882812499 Q 7.029959472656252 0.1258359375 7.044003662109377 0.1716199951171875 Q 7.058047851562502 0.2174040527343749 7.058047851562502 0.28256909179687495 L 7.058047851562502 0.30672509765625 Q 7.058047851562502 0.41626977539062493 7.026588867187502 0.48508630371093747 Q 6.995129882812502 0.55390283203125 6.933897216796876 0.58423828125 L 7.087821533203127 0.967925537109375 L 6.933897216796876 0.967925537109375 L 6.806375976562502 0.6089560546874999 L 6.751884521484377 0.6089560546874999 L 6.751884521484377 0.967925537109375 L 6.609195556640627 0.967925537109375 L 6.609195556640627 0.008426513671874969 M 6.7737934570312515 0.503905517578125 Q 6.811993652343752 0.503905517578125 6.838396728515627 0.49547900390625 Q 6.864799804687502 0.48705249023437497 6.881091064453127 0.4671097412109375 Q 6.897382324218752 0.4471669921875 6.904685302734377 0.41430358886718743 Q 6.911988281250002 0.381440185546875 6.911988281250002 0.333128173828125 L 6.911988281250002 0.25728955078124993 Q 6.911988281250002 0.22021289062499994 6.905247070312502 0.19324804687499997 Q 6.8985058593750015 0.166283203125 6.882495483398439 0.14886840820312497 Q 6.866485107421877 0.13145361328124994 6.8400820312500015 0.12302709960937497 Q 6.813678955078126 0.1146005859375 6.7737934570312515 0.1146005859375 L 6.751884521484377 0.1146005859375 L 6.751884521484377 0.503905517578125 L 6.7737934570312515 0.503905517578125" fill="#0e1425" fill-rule="nonzero"></path></g><g></g><g clip-path="url(#SvgjsClipPath1007)"><g clip-path="url(#SvgjsClipPath1000b85efb8e-3089-42ed-b5dc-d1c514c84a8a)"><path d=" M 3.390998924937113 -5.021603369340276 L 4.481221808134877 -5.313776423796033 C 5.420627743223093 -5.565323510679844 5.9838260881930445 -4.042127986783841 4.3426483023072855 -3.488390483577219 C 3.212912491745034 -3.1082872527328744 2.835035341315587 -1.6457524201429221 3.9987188782050818 -1.9579601983327866 C 4.416665476102742 -2.0692642190778345 5.180211058413786 -2.259594094551872 4.979863821072692 -1.5016137132780818 C 4.679899485164784 -0.3818952645828837 5.170193696546729 -0.7959462217544662 5.689426953322386 -1.4515269039428098 C 6.107693693558508 -1.9782228715552206 6.359564662732604 -2.6175876394586988 6.4129030881652085 -3.288043246236131 C 6.51149118232526 -4.047317765406691 6.28208990652041 -4.812650039675685 5.782108925323822 -5.392509010644917 C 5.282127944127236 -5.972367981614152 4.558879555686296 -6.311882641085916 3.7933629599304646 -6.3260864924722595 C 2.543975327067284 -6.3266430125759845 2.2406718705370268 -4.7132912318764895 3.390998924937113 -5.021603369340276 Z" fill="#ff0000" transform="matrix(1,0,0,1,0,0)" fill-rule="evenodd"></path></g><g clip-path="url(#SvgjsClipPath1000b85efb8e-3089-42ed-b5dc-d1c514c84a8a)"><path d=" M 3.7243544670685376 -1.5550396432357054 L 2.634131583870774 -1.2634231088836758 C 1.6947256487825553 -1.0113195018961383 1.1315273038126041 -2.535071545895868 2.7732616098020855 -3.0882525289987646 C 3.902440900260613 -3.4689122799468333 4.2808745707937845 -4.931447112536786 3.1166345138005647 -4.619239334346921 C 2.6986879159029047 -4.507935313601871 1.9351423335918612 -4.317605438127837 2.1354895709329536 -5.0750292992979 C 2.435453906840861 -6.195304268096824 1.9451596954589196 -5.780696790821515 1.4259264386832613 -5.125672628736897 C 1.0075710863502285 -4.59902778010767 0.7556890605792943 -3.9596349454583843 0.7024503038404397 -3.289156286443577 C 0.6036900968534523 -2.5297930785496487 0.8330127324350686 -1.7643076935148585 1.3330130932526953 -1.1843200219481984 C 1.8330134540703302 -0.6043323503815392 2.5563633458012296 -0.26474189111500124 3.3219904320751823 -0.2505565201037241 C 4.571934585042092 -0.2499999999999991 4.875238041572349 -1.8639083008032191 3.7243544670685376 -1.5550396432357054 Z" fill="#ff0000" transform="matrix(1,0,0,1,0,0)" fill-rule="evenodd"></path></g></g></g><defs><clipPath id="SvgjsClipPath1007"><path d=" M 0.6918764218696603 -6.3266430125759845 h 5.732157068370055 v 6.0766430125759845 h -5.732157068370055 Z"></path></clipPath><clipPath id="SvgjsClipPath1000b85efb8e-3089-42ed-b5dc-d1c514c84a8a"><path d=" M 0.6918764218696597 -6.3266430125759845 L 6.424033490239715 -6.3266430125759845 L 6.424033490239715 -0.25 L 0.6918764218696593 -0.25 Z"></path></clipPath></defs></svg>